<?xml version="1.0" standalone="no"?>
<!DOCTYPE svg PUBLIC "-//W3C//DTD SVG 20010904//EN"
 "http://www.w3.org/TR/2001/REC-SVG-20010904/DTD/svg10.dtd">
<svg version="1.0" xmlns="http://www.w3.org/2000/svg"
 width="419.000000pt" height="419.000000pt" viewBox="0 0 419.000000 419.000000"
 preserveAspectRatio="xMidYMid meet">
<metadata>
Created by potrace 1.14, written by Peter Selinger 2001-2017
</metadata>
<g transform="translate(0.000000,419.000000) scale(0.100000,-0.100000)"
fill="#000000" stroke="none">
<path d="M1465 3653 c-22 -2 -168 -4 -325 -5 -277 -3 -286 -4 -316 -25 -21
-15 -33 -34 -37 -55 -3 -18 -4 -634 -4 -1368 2 -1318 2 -1335 22 -1362 32 -42
70 -54 185 -57 58 -1 107 -7 110 -12 3 -4 6 -56 5 -114 0 -58 0 -105 0 -105 0
0 25 18 55 39 l55 39 43 -46 c23 -26 42 -40 41 -32 -1 8 -1 63 0 123 l1 107
765 0 c673 0 765 2 766 15 1 8 2 25 2 38 l1 22 -762 0 c-657 0 -762 2 -760 14
2 12 32 15 153 17 83 1 373 5 645 9 411 6 618 10 708 14 6 1 12 7 12 15 0 15
-54 16 -1157 16 l-363 0 0 28 0 27 158 1 c295 2 1087 15 1206 19 132 5 164 11
148 27 -10 10 -1106 12 -1687 4 -218 -4 -241 -2 -241 13 0 14 29 16 301 17
640 3 1584 20 1618 30 28 9 19 22 -18 26 -38 4 -1528 0 -1752 -5 -134 -3 -143
-2 -143 15 0 23 43 68 65 68 8 0 15 -7 15 -16 0 -9 6 -14 13 -11 6 2 11 9 10
14 -1 7 313 10 890 11 491 0 903 1 917 1 l25 1 -1 115 c-1 64 2 114 6 113 5
-2 153 -146 329 -320 289 -286 325 -318 354 -318 28 0 49 17 160 126 112 110
127 129 127 158 0 31 -34 68 -398 432 -515 515 -517 517 -544 520 -13 1 -26 3
-29 3 -3 1 -5 359 -5 796 1 438 -1 801 -4 808 -4 9 -157 12 -665 12 -363 0
-678 -1 -700 -2z m-363 -2688 c-2 -11 -5 -22 -7 -23 -2 -2 -40 -5 -85 -6 -58
-1 -84 -6 -90 -16 -18 -29 9 -40 102 -40 74 0 88 -2 80 -13 -8 -9 -35 -13 -88
-12 -67 2 -80 5 -96 25 -10 12 -18 30 -19 39 0 9 -2 28 -3 43 l-2 28 106 -3
c99 -2 105 -3 102 -22z"/>
</g>
</svg>
